<?xml version="1.0" standalone="no"?><!DOCTYPE svg PUBLIC "-//W3C//DTD SVG 1.1//EN" "http://www.w3.org/Graphics/SVG/1.1/DTD/svg11.dtd"><svg t="1650089496707" class="icon" viewBox="0 0 1024 1024" version="1.1" xmlns="http://www.w3.org/2000/svg" p-id="3227" xmlns:xlink="http://www.w3.org/1999/xlink" width="200" height="200"><defs><style type="text/css">@font-face { font-family: feedback-iconfont; src: url("//at.alicdn.com/t/font_1031158_u69w8yhxdu.woff2?t=1630033759944") format("woff2"), url("//at.alicdn.com/t/font_1031158_u69w8yhxdu.woff?t=1630033759944") format("woff"), url("//at.alicdn.com/t/font_1031158_u69w8yhxdu.ttf?t=1630033759944") format("truetype"); }
</style></defs><path d="M512 985C250.77 985 39 773.23 39 512S250.77 39 512 39s473 211.77 473 473-211.77 473-473 473z" fill="#ff8198" p-id="3228" data-spm-anchor-id="a313x.7781069.0.i6" class="selected"></path><path d="M391.84 648.34l321.887-321.635c15.627-15.615 40.953-15.605 56.568 0.022 15.615 15.627 15.605 40.953-0.022 56.568L419.957 733.338c-15.679 15.666-41.108 15.597-56.7-0.156L201.571 569.845c-15.541-15.7-15.412-41.027 0.288-56.568 15.7-15.541 41.026-15.413 56.568 0.288L391.84 648.34z" fill="#FFFFFF" p-id="3229"></path></svg>